<svg width="200" height="200" viewBox="0 0 200 200" fill="none" xmlns="http://www.w3.org/2000/svg">
<path d="M38.4667 166.667C34.6278 166.667 31.425 165.383 28.8583 162.817C26.2917 160.25 25.0056 157.044 25 153.2V71.7999C25 67.961 26.2861 64.7583 28.8583 62.1916C31.4306 59.6249 34.6306 58.3388 38.4583 58.3333H75V46.7916C75 42.9583 76.2861 39.7555 78.8583 37.1833C81.4306 34.611 84.6333 33.3277 88.4667 33.3333H111.542C115.375 33.3333 118.578 34.6166 121.15 37.1833C123.722 39.7499 125.006 42.9527 125 46.7916V58.3333H161.542C165.375 58.3333 168.575 59.6194 171.142 62.1916C173.708 64.7638 174.994 67.9666 175 71.7999V153.208C175 157.042 173.714 160.244 171.142 162.817C168.569 165.389 165.369 166.672 161.542 166.667H38.4667ZM83.3333 58.3333H116.667V46.7916C116.667 45.5138 116.133 44.3388 115.067 43.2666C114 42.1944 112.825 41.661 111.542 41.6666H88.4583C87.1805 41.6666 86.0056 42.1999 84.9333 43.2666C83.8611 44.3333 83.3278 45.5083 83.3333 46.7916V58.3333ZM166.667 120.833H116.667V133.333H83.3333V120.833H33.3333V153.208C33.3333 154.486 33.8667 155.661 34.9333 156.733C36 157.805 37.175 158.339 38.4583 158.333H161.542C162.819 158.333 163.994 157.8 165.067 156.733C166.139 155.667 166.672 154.489 166.667 153.2V120.833ZM91.6667 125H108.333V108.333H91.6667V125ZM33.3333 112.5H83.3333V99.9999H116.667V112.5H166.667V71.7999C166.667 70.5166 166.133 69.3388 165.067 68.2666C164 67.1944 162.825 66.661 161.542 66.6666H38.4583C37.1806 66.6666 36.0056 67.1999 34.9333 68.2666C33.8611 69.3333 33.3278 70.5111 33.3333 71.7999V112.5Z" fill="#111111"/>
</svg>
