<svg width="200" height="200" viewBox="0 0 200 200" fill="none" xmlns="http://www.w3.org/2000/svg">
<path d="M96.7809 5.60864L6.25 49.1977V71.875H193.75V49.0774L96.7809 5.60864ZM181.25 59.375H18.75V57.0524L96.9691 19.3915L181.25 57.1727V59.375ZM18.75 159.375H181.25V171.875H18.75V159.375ZM6.25 181.25H193.75V193.75H6.25V181.25ZM21.875 84.375H34.375V146.875H21.875V84.375ZM165.625 84.375H178.125V146.875H165.625V84.375ZM128.125 84.375H140.625V146.875H128.125V84.375ZM59.375 84.375H71.875V146.875H59.375V84.375ZM93.75 84.375H106.25V146.875H93.75V84.375Z" fill="#111111"/>
</svg>
