<svg width="200" height="200" viewBox="0 0 200 200" fill="none" xmlns="http://www.w3.org/2000/svg">
<path d="M166.667 125V62.5002L114.583 33.2043M85.4166 33.2043L33.3333 62.5002V125M45.8333 144.534L100 175L133.333 156.25L154.167 144.534M100 70.8335L112.5 78.1252L125 85.4168V114.584L112.5 121.875L100 129.167L87.5 121.875L75 114.584V85.4168L87.5 78.1252L100 70.8335ZM100 70.8335V41.6668M125 112.5L154.167 129.167M75 112.5L45.8333 129.167" stroke="black" stroke-width="4" stroke-linecap="round" stroke-linejoin="round"/>
<path d="M100 41.6667C106.904 41.6667 112.5 36.0703 112.5 29.1667C112.5 22.2632 106.904 16.6667 100 16.6667C93.0964 16.6667 87.5 22.2632 87.5 29.1667C87.5 36.0703 93.0964 41.6667 100 41.6667Z" stroke="black" stroke-width="4" stroke-linecap="round" stroke-linejoin="round"/>
<path d="M33.3333 150C40.2369 150 45.8333 144.404 45.8333 137.5C45.8333 130.596 40.2369 125 33.3333 125C26.4298 125 20.8333 130.596 20.8333 137.5C20.8333 144.404 26.4298 150 33.3333 150Z" stroke="black" stroke-width="4" stroke-linecap="round" stroke-linejoin="round"/>
<path d="M166.667 150C173.57 150 179.167 144.404 179.167 137.5C179.167 130.596 173.57 125 166.667 125C159.763 125 154.167 130.596 154.167 137.5C154.167 144.404 159.763 150 166.667 150Z" stroke="black" stroke-width="4" stroke-linecap="round" stroke-linejoin="round"/>
</svg>
