<svg width="200" height="200" viewBox="0 0 200 200" fill="none" xmlns="http://www.w3.org/2000/svg">
<path d="M175 39.0625H25C22.0992 39.0625 19.3172 40.2148 17.266 42.266C15.2148 44.3172 14.0625 47.0992 14.0625 50V150C14.0625 152.901 15.2148 155.683 17.266 157.734C19.3172 159.785 22.0992 160.938 25 160.938H175C177.901 160.938 180.683 159.785 182.734 157.734C184.785 155.683 185.938 152.901 185.938 150V50C185.938 47.0992 184.785 44.3172 182.734 42.266C180.683 40.2148 177.901 39.0625 175 39.0625ZM25 48.4375H175C175.414 48.4375 175.812 48.6021 176.105 48.8951C176.398 49.1882 176.562 49.5856 176.562 50V70.3125H23.4375V50C23.4375 49.5856 23.6021 49.1882 23.8951 48.8951C24.1882 48.6021 24.5856 48.4375 25 48.4375ZM175 151.562H25C24.5856 151.562 24.1882 151.398 23.8951 151.105C23.6021 150.812 23.4375 150.414 23.4375 150V79.6875H176.562V150C176.562 150.414 176.398 150.812 176.105 151.105C175.812 151.398 175.414 151.562 175 151.562ZM160.938 131.25C160.937 132.493 160.444 133.685 159.565 134.565C158.685 135.444 157.493 135.938 156.25 135.938H131.25C130.007 135.938 128.815 135.444 127.935 134.565C127.056 133.685 126.562 132.493 126.562 131.25C126.562 130.007 127.056 128.815 127.935 127.935C128.815 127.056 130.007 126.562 131.25 126.562H156.25C157.493 126.562 158.685 127.056 159.565 127.935C160.444 128.815 160.938 130.007 160.938 131.25ZM110.938 131.25C110.938 132.493 110.444 133.685 109.565 134.565C108.685 135.444 107.493 135.938 106.25 135.938H93.75C92.5068 135.938 91.3145 135.444 90.4354 134.565C89.5564 133.685 89.0625 132.493 89.0625 131.25C89.0625 130.007 89.5564 128.815 90.4354 127.935C91.3145 127.056 92.5068 126.562 93.75 126.562H106.25C107.493 126.562 108.685 127.056 109.565 127.935C110.444 128.815 110.938 130.007 110.938 131.25Z" fill="black"/>
</svg>
