<svg width="18" height="21" viewBox="0 0 18 21" fill="none" xmlns="http://www.w3.org/2000/svg">
<path d="M10 0C10.2549 0.000282707 10.5 0.0978791 10.6854 0.272848C10.8707 0.447818 10.9822 0.686953 10.9972 0.941395C11.0121 1.19584 10.9293 1.44638 10.7657 1.64183C10.6021 1.83729 10.3701 1.9629 10.117 1.993L10 2H2V16H16V8C16.0003 7.74512 16.0979 7.49997 16.2728 7.31463C16.4478 7.1293 16.687 7.01776 16.9414 7.00283C17.1958 6.98789 17.4464 7.07067 17.6418 7.23426C17.8373 7.39785 17.9629 7.6299 17.993 7.883L18 8V16C18.0002 16.5046 17.8096 16.9906 17.4665 17.3605C17.1234 17.7305 16.6532 17.9572 16.15 17.995L16 18H2C1.49542 18.0002 1.00943 17.8096 0.639452 17.4665C0.269471 17.1234 0.0428434 16.6532 0.00500021 16.15L1.00268e-07 16V2C-0.000159579 1.49542 0.190406 1.00943 0.533497 0.639452C0.876587 0.269471 1.34684 0.0428433 1.85 0.00500011L2 0H10ZM16.243 0.343C16.423 0.163652 16.6644 0.0595265 16.9184 0.0517719C17.1723 0.0440173 17.4197 0.133215 17.6103 0.301249C17.8008 0.469282 17.9203 0.703552 17.9444 0.956475C17.9685 1.2094 17.8954 1.46201 17.74 1.663L17.657 1.758L7.757 11.657C7.57704 11.8363 7.33557 11.9405 7.08162 11.9482C6.82767 11.956 6.58029 11.8668 6.38972 11.6988C6.19916 11.5307 6.07969 11.2964 6.0556 11.0435C6.03151 10.7906 6.10459 10.538 6.26 10.337L6.343 10.243L16.243 0.343Z" fill="#FF0000"/>
</svg>
