<svg width="200" height="200" viewBox="0 0 200 200" fill="none" xmlns="http://www.w3.org/2000/svg">
<g clip-path="url(#clip0_3005_69)">
<path d="M100 200C44.7688 200 0 155.231 0 100C0 44.7688 44.7688 0 100 0C155.231 0 200 44.7688 200 100C200 155.231 155.231 200 100 200ZM107.169 127.787L72.9563 92.1625L62.5 102.813L87 127.781L63.3937 151.838L73.1062 162.5L107.169 127.787ZM127.044 107.844L137.5 97.1812L113 72.2125L136.606 48.1562L126.894 37.5L92.6813 72.2125L127.044 107.844ZM77.2937 88.05L111.656 123.675L122.113 113.019L87.75 78L77.2937 88.05Z" fill="#111111"/>
</g>
<defs>
<clipPath id="clip0_3005_69">
<rect width="200" height="200" fill="white"/>
</clipPath>
</defs>
</svg>
