<svg width="200" height="200" viewBox="0 0 200 200" fill="none" xmlns="http://www.w3.org/2000/svg">
<g clip-path="url(#clip0_3004_58)">
<path d="M93.75 137.5L84.9375 146.312L101.062 162.5H25V50H12.5V162.5C12.5 169.394 18.1062 175 25 175H101.062L84.9375 191.188L93.75 200L125 168.75L93.75 137.5Z" fill="#111111"/>
<path d="M68.75 106.25C72.2018 106.25 75 103.452 75 100C75 96.5482 72.2018 93.75 68.75 93.75C65.2982 93.75 62.5 96.5482 62.5 100C62.5 103.452 65.2982 106.25 68.75 106.25Z" fill="#111111"/>
<path d="M150 125H50C43.1062 125 37.5 119.394 37.5 112.5V87.5C37.5 80.6062 43.1062 75 50 75H150C156.894 75 162.5 80.6062 162.5 87.5V112.5C162.5 119.394 156.894 125 150 125ZM50 87.5V112.5H150V87.5H50Z" fill="#111111"/>
<path d="M175 25H98.9375L115.062 8.8125L106.25 0L75 31.25L106.25 62.5L115.062 53.6875L98.9375 37.5H175V150H187.5V37.5C187.5 30.6125 181.894 25 175 25Z" fill="#111111"/>
</g>
<defs>
<clipPath id="clip0_3004_58">
<rect width="200" height="200" fill="white"/>
</clipPath>
</defs>
</svg>
