<svg width="20" height="20" viewBox="0 0 20 20" fill="none" xmlns="http://www.w3.org/2000/svg">
<path d="M4.00001 5H0.780006C0.410006 5 0.0400063 5.32 0.0900063 5.84L1.65001 15.83C1.65001 15.83 3.50001 8.47 3.86001 6.7C3.97001 6.17 4.47001 6 4.84001 6H10C10 6 9.30001 3.92 9.23001 3.69C9.11001 3.25 8.89001 3 8.45001 3H5.14001C4.78001 3 4.44001 3.23 4.34001 3.64C4.25001 4.04 4.00001 5 4.00001 5ZM8.88001 5H4.88001C4.88001 5 5.30001 4 5.75001 4H7.88001C8.36001 4 8.88001 5 8.88001 5ZM2.67001 16.25C2.36001 16.72 1.91001 17 1.41001 17H17.14C17.68 17 18.06 16.69 18.17 16.17C18.61 13.98 19.85 7.73 19.85 7.73C19.92 7.23 19.55 7 19.23 7H16V5.53C16 5.37 15.74 5 15.34 5H11.58C11.06 5 10.71 5.58 10.71 5.58L10 7H5.59001C5.27001 7 4.96001 7.19 4.90001 7.5C4.90001 7.5 3.31001 14.2 3.18001 14.83C3.11001 15.2 2.96001 15.82 2.67001 16.25ZM15.38 7H11C11 7 11.58 6 12.13 6H14.42C15.13 6 15.38 7 15.38 7Z" fill="#F8F8F8"/>
</svg>
