<svg width="200" height="200" viewBox="0 0 200 200" fill="none" xmlns="http://www.w3.org/2000/svg">
<path d="M100 165.833C113.472 161.667 124.722 153.439 133.75 141.15C142.778 128.861 148.056 115.144 149.583 100H100V34.5333L53.3666 51.8417C52.2944 52.2694 51.4666 52.9111 50.8833 53.7667C50.2944 54.6222 50 55.5833 50 56.65V96.0917C50 97.1694 50.1388 98.4722 50.4166 100H100V165.833ZM100 173.683C99.2444 173.683 98.4472 173.614 97.6083 173.475C96.7694 173.336 95.9916 173.128 95.275 172.85C78.8694 166.6 65.8333 156 56.1666 141.05C46.5 126.1 41.6666 109.917 41.6666 92.5V56.8083C41.6666 53.975 42.4861 51.4111 44.125 49.1167C45.7638 46.8222 47.8611 45.1555 50.4166 44.1167L95.2916 27.45C96.9138 26.8611 98.4833 26.5667 100 26.5667C101.517 26.5667 103.089 26.8611 104.717 27.45L149.583 44.1167C152.139 45.1555 154.236 46.8222 155.875 49.1167C157.514 51.4111 158.333 53.975 158.333 56.8083V92.5C158.333 109.917 153.5 126.1 143.833 141.05C134.167 156 121.131 166.6 104.725 172.85C104.003 173.128 103.225 173.336 102.392 173.475C101.558 173.614 100.761 173.683 100 173.683Z" fill="#111111"/>
</svg>
