<svg width="84" height="12" viewBox="0 0 84 12" fill="none" xmlns="http://www.w3.org/2000/svg">
<mask id="mask0_65_99" style="mask-type:luminance" maskUnits="userSpaceOnUse" x="0" y="0" width="84" height="12">
<path d="M84 0H0V12H84V0Z" fill="white"/>
</mask>
<g mask="url(#mask0_65_99)">
<path d="M14.1122 9.46124L11.8081 11.8362C11.7583 11.8878 11.6979 11.929 11.6308 11.9572C11.5637 11.9853 11.4912 11.9999 11.418 12H0.495404C0.44331 12 0.392354 11.9853 0.348775 11.9579C0.305198 11.9305 0.27089 11.8914 0.250053 11.8455C0.229215 11.7996 0.222753 11.7488 0.231457 11.6995C0.240161 11.6501 0.263653 11.6042 0.299058 11.5675L2.60061 9.19249C2.65045 9.14091 2.71079 9.09974 2.77792 9.07156C2.84502 9.0434 2.91746 9.02881 2.9907 9.02874H13.9133C13.9658 9.0277 14.0176 9.04163 14.0619 9.06878C14.1063 9.09593 14.1414 9.13508 14.1626 9.1813C14.1839 9.22754 14.1904 9.27879 14.1814 9.3286C14.1725 9.37841 14.1484 9.42456 14.1122 9.46124ZM11.8081 4.67749C11.7581 4.62614 11.6977 4.58514 11.6306 4.55697C11.5635 4.52882 11.4912 4.51411 11.418 4.51375H0.495404C0.44331 4.51377 0.392354 4.5284 0.348775 4.55585C0.305198 4.58329 0.27089 4.62235 0.250053 4.66825C0.229215 4.71415 0.222753 4.76489 0.231457 4.81426C0.240161 4.86364 0.263653 4.90951 0.299058 4.94625L2.60061 7.3225C2.65063 7.37385 2.71103 7.41485 2.7781 7.44301C2.84517 7.47116 2.91752 7.48588 2.9907 7.48624H13.9133C13.9653 7.48597 14.016 7.47116 14.0595 7.44364C14.1029 7.4161 14.137 7.37702 14.1576 7.33117C14.1783 7.28533 14.1847 7.23467 14.1758 7.18541C14.1671 7.13615 14.1437 7.0904 14.1083 7.05375L11.8081 4.67749ZM0.495404 2.97124H11.418C11.4912 2.97117 11.5637 2.95659 11.6308 2.92841C11.6979 2.90025 11.7583 2.85908 11.8081 2.80749L14.1122 0.432494C14.1484 0.395809 14.1725 0.349658 14.1814 0.299846C14.1904 0.250035 14.1839 0.198789 14.1626 0.152556C14.1414 0.106324 14.1063 0.067171 14.0619 0.0400244C14.0176 0.0128776 13.9658 -0.00105015 13.9133 -6.38485e-06H2.9907C2.91746 6.77202e-05 2.84502 0.0146459 2.77792 0.0428191C2.71079 0.0709922 2.65045 0.112156 2.60061 0.163744L0.299058 2.53874C0.263653 2.57547 0.240161 2.62135 0.231457 2.67073C0.222753 2.7201 0.229215 2.77084 0.250053 2.81674C0.27089 2.86264 0.305198 2.9017 0.348775 2.92914C0.392354 2.95659 0.44331 2.97121 0.495404 2.97124Z" fill="url(#paint0_linear_65_99)"/>
<path d="M27.4287 5.07503H21.5851V3.22503H28.9475V1.37503H21.5656C21.3134 1.37371 21.0635 1.42016 20.8299 1.51173C20.5964 1.6033 20.3838 1.73819 20.2046 1.9087C20.0253 2.07921 19.8826 2.28201 19.7849 2.5055C19.6871 2.729 19.636 2.96883 19.6347 3.21128V5.08628C19.6357 5.32894 19.6864 5.56904 19.7841 5.79281C19.8817 6.0166 20.0242 6.21969 20.2036 6.39046C20.383 6.56125 20.5956 6.69636 20.8293 6.78809C21.0629 6.87981 21.3132 6.92635 21.5656 6.92502H27.417V8.77503H19.7738V10.625H27.4287C27.681 10.6263 27.9309 10.5799 28.1644 10.4883C28.398 10.3968 28.6106 10.2619 28.7898 10.0913C28.9691 9.92084 29.1117 9.71805 29.2095 9.49455C29.3073 9.27105 29.3584 9.03123 29.3597 8.78878V6.91377C29.3586 6.67111 29.3079 6.43103 29.2103 6.20724C29.1126 5.98345 28.9701 5.78036 28.7908 5.60959C28.6114 5.43881 28.3988 5.3037 28.1651 5.21198C27.9314 5.12025 27.6811 5.07371 27.4287 5.07503Z" fill="white"/>
<path d="M38.7492 1.375H32.8835C32.6309 1.37303 32.3803 1.41899 32.1461 1.51026C31.9121 1.60154 31.6989 1.73631 31.5191 1.9069C31.3391 2.07748 31.1961 2.28049 31.0981 2.50431C30.9999 2.72814 30.9487 2.96838 30.9474 3.21125V8.78875C30.9487 9.03162 30.9999 9.27186 31.0981 9.49569C31.1961 9.71951 31.3391 9.92252 31.5191 10.0931C31.6989 10.2637 31.9121 10.3985 32.1461 10.4897C32.3803 10.581 32.6309 10.627 32.8835 10.625H38.7492C39.0015 10.6263 39.2514 10.5799 39.4849 10.4883C39.7185 10.3967 39.9311 10.2618 40.1103 10.0913C40.2896 9.92081 40.4322 9.71801 40.53 9.49452C40.6278 9.27103 40.6789 9.0312 40.6802 8.78875V3.21125C40.6789 2.9688 40.6278 2.72898 40.53 2.50548C40.4322 2.28199 40.2896 2.07919 40.1103 1.90867C39.9311 1.73816 39.7185 1.60328 39.4849 1.5117C39.2514 1.42014 39.0015 1.37369 38.7492 1.375ZM38.7349 8.775H32.8978V3.225H38.7323L38.7349 8.775Z" fill="white"/>
<path d="M59.2941 1.37501H53.5727C53.3205 1.3737 53.0706 1.42015 52.837 1.51171C52.6035 1.60329 52.3909 1.73818 52.2117 1.90869C52.0324 2.0792 51.8898 2.282 51.792 2.50549C51.6942 2.72899 51.6431 2.96881 51.6418 3.21126V10.625H53.5922V7.58626H59.2876V10.625H61.2381V3.21126C61.2368 2.96775 61.1853 2.7269 61.0867 2.50258C60.988 2.27826 60.8443 2.07491 60.6636 1.90423C60.483 1.73355 60.2689 1.59893 60.0339 1.5081C59.7988 1.41728 59.5474 1.37205 59.2941 1.37501ZM59.2798 5.73626H53.5844V3.22501H59.2798V5.73626Z" fill="white"/>
<path d="M82.069 1.37503H76.3477C76.0954 1.37371 75.8455 1.42016 75.6119 1.51173C75.3784 1.6033 75.1659 1.73819 74.9866 1.9087C74.8073 2.07921 74.6647 2.28201 74.5669 2.5055C74.4691 2.729 74.418 2.96883 74.4167 3.21128V10.625H76.3672V7.58628H82.0495V10.625H84V3.21128C83.9987 2.96883 83.9476 2.729 83.8498 2.5055C83.752 2.28201 83.6094 2.07921 83.43 1.9087C83.2507 1.73819 83.0383 1.6033 82.8047 1.51173C82.5712 1.42016 82.3213 1.37371 82.069 1.37503ZM82.0495 5.73628H76.3542V3.22503H82.0495V5.73628Z" fill="white"/>
<path d="M70.7368 8.77501H69.9566L67.1675 2.15001C67.0719 1.92145 66.9074 1.72556 66.6952 1.58749C66.483 1.4494 66.2327 1.37541 65.9764 1.37501H64.2457C64.0774 1.37419 63.9107 1.40523 63.7551 1.46634C63.5993 1.52746 63.4577 1.61746 63.3381 1.73121C63.2186 1.84498 63.1235 1.98024 63.0584 2.12931C62.9932 2.27838 62.9593 2.43833 62.9584 2.60001V10.625H64.9088V3.22501H65.689L68.4769 9.85001C68.574 10.0781 68.7398 10.2732 68.9529 10.4104C69.1659 10.5475 69.4168 10.6205 69.6732 10.62H71.4039C71.5721 10.6208 71.7388 10.5898 71.8945 10.5287C72.0503 10.4676 72.1919 10.3776 72.3115 10.2638C72.431 10.1501 72.5261 10.0148 72.5912 9.86573C72.6563 9.71665 72.6903 9.55671 72.6912 9.39501V1.37501H70.7368V8.77501Z" fill="white"/>
<path d="M44.3535 1.375H42.4031V8.78875C42.4044 9.03174 42.4557 9.27207 42.5539 9.49597C42.6521 9.71989 42.7952 9.92295 42.9752 10.0935C43.1552 10.2641 43.3686 10.3989 43.6027 10.4901C43.8371 10.5813 44.0878 10.6271 44.3405 10.625H50.1919V8.775H44.3535V1.375Z" fill="white"/>
</g>
<defs>
<linearGradient id="paint0_linear_65_99" x1="1.40562" y1="12.2863" x2="12.3555" y2="-0.555351" gradientUnits="userSpaceOnUse">
<stop offset="0.08" stop-color="#9945FF"/>
<stop offset="0.3" stop-color="#8752F3"/>
<stop offset="0.5" stop-color="#5497D5"/>
<stop offset="0.6" stop-color="#43B4CA"/>
<stop offset="0.72" stop-color="#28E0B9"/>
<stop offset="0.97" stop-color="#19FB9B"/>
</linearGradient>
</defs>
</svg>
