<svg width="200" height="200" viewBox="0 0 200 200" fill="none" xmlns="http://www.w3.org/2000/svg">
<path fill-rule="evenodd" clip-rule="evenodd" d="M30.6249 84.5H150.5C152 84.5 153.375 85.125 154.5 86.25L173.5 105.75C177 109.375 174.5 115.5 169.5 115.5H49.6249C48.1249 115.5 46.7499 114.875 45.6249 113.75L26.6249 94.25C23.1249 90.625 25.6249 84.5 30.6249 84.5ZM26.6249 58.625L45.6249 39.125C46.6249 38 48.1249 37.375 49.6249 37.375H169.375C174.375 37.375 176.875 43.5 173.375 47.125L154.5 66.625C153.5 67.75 152 68.375 150.5 68.375H30.6249C25.6249 68.375 23.1249 62.25 26.6249 58.625ZM173.375 141.25L154.375 160.75C153.25 161.875 151.875 162.5 150.375 162.5H30.6249C25.6249 162.5 23.1249 156.375 26.6249 152.75L45.6249 133.25C46.6249 132.125 48.1249 131.5 49.6249 131.5H169.375C174.375 131.5 176.875 137.625 173.375 141.25Z" fill="#111111"/>
</svg>
