<svg width="200" height="200" viewBox="0 0 200 200" fill="none" xmlns="http://www.w3.org/2000/svg">
<path fill-rule="evenodd" clip-rule="evenodd" d="M183.333 49.1001C177.092 51.8325 170.477 53.6161 163.708 54.3918C170.804 50.2105 176.135 43.5904 178.708 35.7668C171.984 39.6944 164.645 42.4583 157 43.9418C153.78 40.5805 149.912 37.9073 145.629 36.0839C141.346 34.2605 136.738 33.3248 132.083 33.3334C123.091 33.2669 114.44 36.7743 108.033 43.0845C101.626 49.3946 97.9871 57.991 97.9166 66.9834C97.9166 69.5723 98.2083 72.1251 98.7916 74.6418C85.2457 73.9984 71.983 70.5363 59.851 64.4768C47.719 58.4172 36.9844 49.8934 28.3333 39.4501C23.9685 46.8591 22.6309 55.6666 24.5994 64.0373C26.5679 72.408 31.6906 79.6963 38.9 84.3835C33.4831 84.2127 28.1799 82.7863 23.4083 80.2168V80.6334C23.4613 88.4552 26.2229 96.0169 31.223 102.032C36.2231 108.047 43.1529 112.144 50.8333 113.625C45.7859 114.971 40.5011 115.171 35.3666 114.208C37.613 120.932 41.8903 126.793 47.6084 130.982C53.3265 135.172 60.2038 137.484 67.2916 137.6C52.8797 148.669 34.713 153.669 16.6666 151.533C32.3509 161.452 50.5344 166.701 69.0916 166.667C81.7974 166.858 94.4144 164.52 106.208 159.79C118.002 155.059 128.738 148.031 137.79 139.113C146.842 130.195 154.03 119.565 158.936 107.843C163.842 96.1213 166.368 83.5407 166.367 70.8334C166.367 69.3584 166.367 67.9251 166.267 66.4751C172.962 61.7662 178.745 55.8787 183.333 49.1001Z" fill="#111111"/>
</svg>
