<svg width="256" height="256" viewBox="0 0 256 256" fill="none" xmlns="http://www.w3.org/2000/svg">
<path d="M216 74H56C53.3478 74 50.8043 72.9464 48.9289 71.0711C47.0536 69.1957 46 66.6522 46 64C46 61.3478 47.0536 58.8043 48.9289 56.9289C50.8043 55.0536 53.3478 54 56 54H192C193.591 54 195.117 53.3679 196.243 52.2426C197.368 51.1174 198 49.5913 198 48C198 46.4087 197.368 44.8826 196.243 43.7574C195.117 42.6321 193.591 42 192 42H56C50.1652 42 44.5694 44.3178 40.4436 48.4436C36.3178 52.5694 34 58.1652 34 64V192C34 197.835 36.3178 203.431 40.4436 207.556C44.5694 211.682 50.1652 214 56 214H216C219.713 214 223.274 212.525 225.899 209.899C228.525 207.274 230 203.713 230 200V88C230 84.287 228.525 80.726 225.899 78.1005C223.274 75.475 219.713 74 216 74ZM218 200C218 200.53 217.789 201.039 217.414 201.414C217.039 201.789 216.53 202 216 202H56C53.3478 202 50.8043 200.946 48.9289 199.071C47.0536 197.196 46 194.652 46 192V83.59C49.0939 85.178 52.5223 86.0043 56 86H216C216.53 86 217.039 86.2107 217.414 86.5858C217.789 86.9609 218 87.4696 218 88V200ZM190 140C190 141.978 189.414 143.911 188.315 145.556C187.216 147.2 185.654 148.482 183.827 149.239C182 149.996 179.989 150.194 178.049 149.808C176.109 149.422 174.327 148.47 172.929 147.071C171.53 145.673 170.578 143.891 170.192 141.951C169.806 140.011 170.004 138 170.761 136.173C171.518 134.346 172.8 132.784 174.444 131.685C176.089 130.586 178.022 130 180 130C182.652 130 185.196 131.054 187.071 132.929C188.946 134.804 190 137.348 190 140Z" fill="white"/>
</svg>
